<svg width="18" height="15" viewBox="0 0 18 15" fill="none" xmlns="http://www.w3.org/2000/svg">
<path d="M15.9961 4.10478C16.6854 3.58778 17.3058 2.96737 17.7884 2.24357C17.168 2.5193 16.4442 2.7261 15.7204 2.79504C16.4786 2.34697 17.0301 1.65763 17.3058 0.795956C16.6165 1.20956 15.8238 1.51976 15.031 1.6921C14.3417 0.96829 13.4111 0.554688 12.3771 0.554688C10.378 0.554688 8.75804 2.17463 8.75804 4.17371C8.75804 4.44945 8.79251 4.72518 8.86144 5.00092C5.86282 4.82858 3.1744 3.38097 1.38212 1.20956C1.07192 1.72656 0.899586 2.34697 0.899586 3.03631C0.899586 4.27711 1.51999 5.38005 2.51953 6.03493C1.93359 6.00046 1.34766 5.86259 0.86512 5.58686V5.62132C0.86512 7.37914 2.10593 8.82675 3.76034 9.17142C3.48461 9.24035 3.13994 9.30928 2.82973 9.30928C2.58847 9.30928 2.38166 9.27482 2.1404 9.24035C2.58847 10.688 3.93267 11.722 5.51815 11.7564C4.27734 12.7215 2.72633 13.3074 1.03745 13.3074C0.727252 13.3074 0.451517 13.273 0.175781 13.2385C1.76126 14.2725 3.65694 14.8585 5.72495 14.8585C12.3771 14.8585 15.9961 9.37822 15.9961 4.58732C15.9961 4.41498 15.9961 4.27711 15.9961 4.10478Z" fill="black"/>
</svg>
